{
  "accessors": [
    {
      "bufferView": 2,
      "componentType": 5126,
      "count": 16963,
      "max": [
        1.1037219762802124,
        0.6000080108642578,
        2.2965610027313232
      ],
      "min": [
        -1.256111979484558,
        -0.7479259967803955,
        -0.009347000159323215
      ],
      "type": "VEC3"
    },
    {
      "bufferView": 2,
      "byteOffset": 203556,
      "componentType": 5126,
      "count": 16963,
      "max": [
        0.9999717473983765,
        0.999998927116394,
        0.9998989105224609
      ],
      "min": [
        -0.9997438788414001,
        -0.9999716281890869,
        -0.9998655915260315
      ],
      "type": "VEC3"
    },
    {
      "bufferView": 3,
      "componentType": 5126,
      "count": 16963,
      "max": [
        0.9999333024024963,
        0.9999675750732422,
        0.9993649125099182,
        1.0
      ],
      "min": [
        -0.9999790191650391,
        -0.9999786019325256,
        -0.9999825358390808,
        -1.0
      ],
      "type": "VEC4"
    },
    {
      "bufferView": 1,
      "componentType": 5126,
      "count": 16963,
      "max": [
        0.9988930225372314,
        0.9957200288772583
      ],
      "min": [
        0.0012730000307783484,
        0.004672999959439039
      ],
      "type": "VEC2"
    },
    {
      "bufferView": 0,
      "componentType": 5125,
      "count": 92466,
      "type": "SCALAR"
    }
  ],
  "asset": {
    "extras": {
      "author": "Aaron_Beller (https://sketchfab.com/Aaron_Beller)",
      "license": "CC-BY-4.0 (http://creativecommons.org/licenses/by/4.0/)",
      "source": "https://sketchfab.com/3d-models/stone-demon-2e1c7c5514a54f599a913bfe0fdeaf83",
      "title": "Stone Demon"
    },
    "generator": "Sketchfab-12.68.0",
    "version": "2.0"
  },
  "bufferViews": [
    {
      "buffer": 0,
      "byteLength": 369864,
      "name": "floatBufferViews",
      "target": 34963
    },
    {
      "buffer": 0,
      "byteLength": 135704,
      "byteOffset": 369864,
      "byteStride": 8,
      "name": "floatBufferViews",
      "target": 34962
    },
    {
      "buffer": 0,
      "byteLength": 407112,
      "byteOffset": 505568,
      "byteStride": 12,
      "name": "floatBufferViews",
      "target": 34962
    },
    {
      "buffer": 0,
      "byteLength": 271408,
      "byteOffset": 912680,
      "byteStride": 16,
      "name": "floatBufferViews",
      "target": 34962
    }
  ],
  "buffers": [
    {
      "byteLength": 1184088,
      "uri": "scene.bin"
    }
  ],
  "images": [
    {
      "uri": "textures/MergedTextures_baseColor.png"
    },
    {
      "uri": "textures/MergedTextures_metallicRoughness.png"
    },
    {
      "uri": "textures/MergedTextures_emissive.png"
    },
    {
      "uri": "textures/MergedTextures_normal.png"
    }
  ],
  "materials": [
    {
      "doubleSided": true,
      "emissiveFactor": [
        0.9052085876464844,
        0.9052085876464844,
        0.9052085876464844
      ],
      "emissiveTexture": {
        "index": 2
      },
      "name": "MergedTextures",
      "normalTexture": {
        "index": 3
      },
      "pbrMetallicRoughness": {
        "baseColorTexture": {
          "index": 0
        },
        "metallicFactor": 0.0,
        "metallicRoughnessTexture": {
          "index": 1
        },
        "roughnessFactor": 0.6155208587646485
      }
    }
  ],
  "meshes": [
    {
      "name": "Object_0",
      "primitives": [
        {
          "attributes": {
            "NORMAL": 1,
            "POSITION": 0,
            "TANGENT": 2,
            "TEXCOORD_0": 3
          },
          "indices": 4,
          "material": 0,
          "mode": 4
        }
      ]
    }
  ],
  "nodes": [
    {
      "children": [
        1
      ],
      "matrix": [
        0.8368592262268066,
        0.0,
        0.0,
        0.0,
        0.0,
        1.8582007626539868e-16,
        -0.8368592262268066,
        0.0,
        0.0,
        0.8368592262268066,
        1.8582007626539868e-16,
        0.0,
        0.0,
        0.0,
        0.0,
        1.0
      ],
      "name": "Sketchfab_model"
    },
    {
      "children": [
        2
      ],
      "name": "StoneDeamon.obj.cleaner.materialmerger.gles"
    },
    {
      "mesh": 0,
      "name": "Object_2"
    }
  ],
  "samplers": [
    {
      "magFilter": 9729,
      "minFilter": 9987,
      "wrapS": 10497,
      "wrapT": 10497
    }
  ],
  "scene": 0,
  "scenes": [
    {
      "name": "Sketchfab_Scene",
      "nodes": [
        0
      ]
    }
  ],
  "textures": [
    {
      "sampler": 0,
      "source": 0
    },
    {
      "sampler": 0,
      "source": 1
    },
    {
      "sampler": 0,
      "source": 2
    },
    {
      "sampler": 0,
      "source": 3
    }
  ]
}
